<svg xmlns="http://www.w3.org/2000/svg" xmlns:xlink="http://www.w3.org/1999/xlink" width="1000" viewBox="0 0 750 187.499995" height="250" preserveAspectRatio="xMidYMid meet"><defs><g></g><clipPath id="0030716dfe"><path d="M 309 17 L 427 17 L 427 147.144531 L 309 147.144531 Z M 309 17 " clip-rule="nonzero"></path></clipPath></defs><g fill="#535fe1" fill-opacity="1"><g transform="translate(72.27562, 117.963555)"><g><path d="M 5.453125 0 L 5.453125 -46.609375 L 21.53125 -46.609375 L 21.53125 -41.703125 L 21.71875 -41.703125 C 25.894531 -45.878906 30.34375 -47.96875 35.0625 -47.96875 C 38.457031 -47.96875 41.640625 -47.269531 44.609375 -45.875 C 47.578125 -44.476562 49.816406 -42.328125 51.328125 -39.421875 C 56.046875 -45.117188 61.191406 -47.96875 66.765625 -47.96875 C 71.734375 -47.96875 76.003906 -46.570312 79.578125 -43.78125 C 83.148438 -41 84.9375 -36.640625 84.9375 -30.703125 L 84.9375 0 L 68.859375 0 L 68.859375 -26.34375 C 68.859375 -28.820312 68.175781 -30.894531 66.8125 -32.5625 C 65.445312 -34.226562 63.40625 -35.0625 60.6875 -35.0625 C 58.320312 -35.0625 56.519531 -34.347656 55.28125 -32.921875 C 54.039062 -31.503906 53.359375 -29.796875 53.234375 -27.796875 L 53.234375 0 L 37.15625 0 L 37.15625 -26.34375 C 37.15625 -28.820312 36.472656 -30.894531 35.109375 -32.5625 C 33.742188 -34.226562 31.703125 -35.0625 28.984375 -35.0625 C 26.492188 -35.0625 24.628906 -34.289062 23.390625 -32.75 C 22.148438 -31.207031 21.53125 -29.375 21.53125 -27.25 L 21.53125 0 Z M 5.453125 0 "></path></g></g></g><g fill="#535fe1" fill-opacity="1"><g transform="translate(157.16384, 117.963555)"><g><path d="M 6.984375 -72.578125 C 8.867188 -74.460938 11.113281 -75.40625 13.71875 -75.40625 C 16.320312 -75.40625 18.5625 -74.460938 20.4375 -72.578125 C 22.3125 -70.703125 23.25 -68.460938 23.25 -65.859375 C 23.25 -63.253906 22.3125 -61.015625 20.4375 -59.140625 C 18.5625 -57.265625 16.320312 -56.328125 13.71875 -56.328125 C 11.113281 -56.328125 8.867188 -57.265625 6.984375 -59.140625 C 5.109375 -61.015625 4.171875 -63.253906 4.171875 -65.859375 C 4.171875 -68.460938 5.109375 -70.703125 6.984375 -72.578125 Z M 5.453125 -46.609375 L 5.453125 0 L 21.53125 0 L 21.53125 -46.609375 Z M 5.453125 -46.609375 "></path></g></g></g><g fill="#535fe1" fill-opacity="1"><g transform="translate(180.040386, 117.963555)"><g><path d="M 5.453125 0 L 5.453125 -46.609375 L 21.53125 -46.609375 L 21.53125 -41.703125 L 21.71875 -41.703125 C 25.894531 -45.878906 30.34375 -47.96875 35.0625 -47.96875 C 37.363281 -47.96875 39.648438 -47.664062 41.921875 -47.0625 C 44.191406 -46.457031 46.367188 -45.515625 48.453125 -44.234375 C 50.546875 -42.960938 52.242188 -41.160156 53.546875 -38.828125 C 54.847656 -36.503906 55.5 -33.796875 55.5 -30.703125 L 55.5 0 L 39.421875 0 L 39.421875 -26.34375 C 39.421875 -28.769531 38.648438 -30.890625 37.109375 -32.703125 C 35.566406 -34.515625 33.550781 -35.421875 31.0625 -35.421875 C 28.644531 -35.421875 26.453125 -34.484375 24.484375 -32.609375 C 22.515625 -30.734375 21.53125 -28.644531 21.53125 -26.34375 L 21.53125 0 Z M 5.453125 0 "></path></g></g></g><g fill="#535fe1" fill-opacity="1"><g transform="translate(235.511635, 117.963555)"><g><path d="M 8.625 -5.765625 C 4.269531 -10.523438 2.09375 -16.351562 2.09375 -23.25 C 2.09375 -30.15625 4.269531 -36 8.625 -40.78125 C 12.988281 -45.570312 18.53125 -47.96875 25.25 -47.96875 C 31.425781 -47.96875 36.515625 -46.03125 40.515625 -42.15625 L 40.515625 -78.125 L 56.59375 -78.125 L 56.59375 0 L 40.703125 0 L 40.703125 -5.265625 L 40.515625 -5.265625 C 36.515625 -0.847656 31.425781 1.359375 25.25 1.359375 C 18.53125 1.359375 12.988281 -1.015625 8.625 -5.765625 Z M 22.296875 -31.15625 C 20.210938 -29.101562 19.171875 -26.46875 19.171875 -23.25 C 19.171875 -20.039062 20.164062 -17.421875 22.15625 -15.390625 C 24.15625 -13.367188 26.789062 -12.359375 30.0625 -12.359375 C 33.21875 -12.359375 35.804688 -13.382812 37.828125 -15.4375 C 39.859375 -17.5 40.875 -20.101562 40.875 -23.25 C 40.875 -26.46875 39.828125 -29.101562 37.734375 -31.15625 C 35.648438 -33.21875 33.09375 -34.25 30.0625 -34.25 C 26.976562 -34.25 24.390625 -33.21875 22.296875 -31.15625 Z M 22.296875 -31.15625 "></path></g></g></g><g fill="#535fe1" fill-opacity="1"><g transform="translate(292.942107, 117.963555)"><g></g></g></g><g fill="#535fe1" fill-opacity="1"><g transform="translate(313.185689, 117.963555)"><g></g></g></g><g fill="#535fe1" fill-opacity="1"><g transform="translate(333.42927, 117.963555)"><g></g></g></g><g fill="#535fe1" fill-opacity="1"><g transform="translate(353.672853, 117.963555)"><g></g></g></g><g fill="#535fe1" fill-opacity="1"><g transform="translate(373.916433, 117.963555)"><g></g></g></g><g fill="#535fe1" fill-opacity="1"><g transform="translate(394.160012, 117.963555)"><g></g></g></g><g fill="#535fe1" fill-opacity="1"><g transform="translate(414.403599, 117.963555)"><g></g></g></g><g fill="#535fe1" fill-opacity="1"><g transform="translate(434.601758, 117.963555)"><g><path d="M 3.359375 11.453125 L 16.53125 5 C 18.957031 8.988281 23.164062 10.984375 29.15625 10.984375 C 31.945312 10.984375 34.535156 10.085938 36.921875 8.296875 C 39.316406 6.515625 40.515625 3.78125 40.515625 0.09375 L 40.515625 -3.359375 C 37.671875 -0.210938 32.582031 1.359375 25.25 1.359375 C 18.53125 1.359375 12.988281 -1.015625 8.625 -5.765625 C 4.269531 -10.523438 2.09375 -16.351562 2.09375 -23.25 C 2.09375 -30.15625 4.269531 -36 8.625 -40.78125 C 12.988281 -45.570312 18.53125 -47.96875 25.25 -47.96875 C 31.25 -47.96875 36.25 -46.117188 40.25 -42.421875 L 40.515625 -42.421875 L 40.515625 -46.609375 L 56.59375 -46.609375 L 56.59375 1.265625 C 56.59375 8.835938 54.078125 14.679688 49.046875 18.796875 C 44.023438 22.921875 37.394531 24.984375 29.15625 24.984375 C 15.832031 24.984375 7.234375 20.472656 3.359375 11.453125 Z M 22.296875 -31.15625 C 20.210938 -29.101562 19.171875 -26.46875 19.171875 -23.25 C 19.171875 -20.039062 20.164062 -17.421875 22.15625 -15.390625 C 24.15625 -13.367188 26.789062 -12.359375 30.0625 -12.359375 C 33.21875 -12.359375 35.804688 -13.382812 37.828125 -15.4375 C 39.859375 -17.5 40.875 -20.101562 40.875 -23.25 C 40.875 -26.46875 39.828125 -29.101562 37.734375 -31.15625 C 35.648438 -33.21875 33.09375 -34.25 30.0625 -34.25 C 26.976562 -34.25 24.390625 -33.21875 22.296875 -31.15625 Z M 22.296875 -31.15625 "></path></g></g></g><g fill="#535fe1" fill-opacity="1"><g transform="translate(492.070505, 117.963555)"><g><path d="M 5.453125 0 L 5.453125 -46.609375 L 21.53125 -46.609375 L 21.53125 -39.875 L 21.71875 -39.875 C 21.832031 -40.125 22.023438 -40.425781 22.296875 -40.78125 C 22.566406 -41.144531 23.15625 -41.78125 24.0625 -42.6875 C 24.976562 -43.601562 25.953125 -44.421875 26.984375 -45.140625 C 28.015625 -45.867188 29.347656 -46.519531 30.984375 -47.09375 C 32.617188 -47.675781 34.28125 -47.96875 35.96875 -47.96875 C 37.726562 -47.96875 39.457031 -47.722656 41.15625 -47.234375 C 42.851562 -46.753906 44.09375 -46.269531 44.875 -45.78125 L 46.15625 -45.0625 L 39.421875 -31.4375 C 37.421875 -33.125 34.632812 -33.96875 31.0625 -33.96875 C 29.125 -33.96875 27.457031 -33.546875 26.0625 -32.703125 C 24.675781 -31.859375 23.691406 -30.828125 23.109375 -29.609375 C 22.535156 -28.398438 22.128906 -27.367188 21.890625 -26.515625 C 21.648438 -25.671875 21.53125 -25.007812 21.53125 -24.53125 L 21.53125 0 Z M 5.453125 0 "></path></g></g></g><g fill="#535fe1" fill-opacity="1"><g transform="translate(532.742512, 117.963555)"><g><path d="M 9.859375 -5.546875 C 4.679688 -10.148438 2.09375 -16.050781 2.09375 -23.25 C 2.09375 -30.457031 4.785156 -36.378906 10.171875 -41.015625 C 15.566406 -45.648438 22.226562 -47.96875 30.15625 -47.96875 C 37.96875 -47.96875 44.550781 -45.632812 49.90625 -40.96875 C 55.269531 -36.300781 57.953125 -30.394531 57.953125 -23.25 C 57.953125 -16.101562 55.332031 -10.210938 50.09375 -5.578125 C 44.863281 -0.953125 38.21875 1.359375 30.15625 1.359375 C 21.800781 1.359375 15.035156 -0.941406 9.859375 -5.546875 Z M 22.296875 -31.15625 C 20.210938 -29.101562 19.171875 -26.46875 19.171875 -23.25 C 19.171875 -20.039062 20.164062 -17.421875 22.15625 -15.390625 C 24.15625 -13.367188 26.789062 -12.359375 30.0625 -12.359375 C 33.21875 -12.359375 35.804688 -13.382812 37.828125 -15.4375 C 39.859375 -17.5 40.875 -20.101562 40.875 -23.25 C 40.875 -26.46875 39.828125 -29.101562 37.734375 -31.15625 C 35.648438 -33.21875 33.09375 -34.25 30.0625 -34.25 C 26.976562 -34.25 24.390625 -33.21875 22.296875 -31.15625 Z M 22.296875 -31.15625 "></path></g></g></g><g fill="#535fe1" fill-opacity="1"><g transform="translate(588.213761, 117.963555)"><g><path d="M 34.0625 0 L 23.171875 0 L -1.8125 -46.609375 L 16.71875 -46.609375 L 28.078125 -21.4375 L 39.25 -46.609375 L 50.328125 -46.609375 L 61.5 -21.4375 L 72.859375 -46.609375 L 91.390625 -46.609375 L 66.40625 0 L 55.5 0 L 44.78125 -24.078125 Z M 34.0625 0 "></path></g></g></g><path fill="#535fe1" d="M 360.921875 69.871094 C 360.109375 69.664062 357.464844 68.816406 355.8125 66.300781 C 355.15625 65.304688 353.820312 65.03125 352.828125 65.679688 C 351.832031 66.332031 351.554688 67.667969 352.207031 68.664062 C 353.652344 70.863281 355.554688 72.210938 357.167969 73.023438 C 355.359375 76.136719 355.714844 79.484375 355.734375 79.667969 C 355.859375 80.765625 356.792969 81.566406 357.871094 81.566406 C 357.949219 81.566406 358.027344 81.5625 358.109375 81.554688 C 359.285156 81.425781 360.136719 80.367188 360.019531 79.1875 C 360.015625 79.15625 359.734375 76.101562 361.726562 74.117188 C 367.816406 73.453125 372.675781 73.847656 376.511719 77.574219 C 376.929688 77.984375 377.472656 78.183594 378.015625 78.183594 C 378.574219 78.183594 379.136719 77.964844 379.558594 77.53125 C 380.386719 76.679688 380.371094 75.316406 379.519531 74.488281 C 374.117188 69.238281 367.40625 69.128906 360.921875 69.871094 " fill-opacity="1" fill-rule="nonzero"></path><g clip-path="url(#0030716dfe)"><path fill="#535fe1" d="M 399.875 86.289062 L 399 86.289062 C 400.429688 84.433594 401.28125 82.113281 401.28125 79.59375 L 401.28125 77.96875 C 401.5625 76.859375 402 76.023438 402.597656 75.476562 L 403.46875 74.914062 C 404.761719 74.378906 406.214844 74.769531 406.277344 74.785156 C 407.402344 75.121094 408.609375 74.484375 408.953125 73.351562 C 409.304688 72.214844 408.664062 71.011719 407.523438 70.660156 C 407.164062 70.550781 403.925781 69.636719 400.9375 71.367188 C 400.410156 71.675781 399.933594 72.039062 399.5 72.460938 C 397.542969 69.8125 394.65625 68.507812 394.472656 68.425781 C 393.390625 67.949219 392.121094 68.4375 391.636719 69.519531 C 391.15625 70.605469 391.644531 71.875 392.722656 72.363281 C 392.765625 72.382812 396.972656 74.320312 396.972656 77.699219 L 396.972656 79.59375 C 396.972656 83.285156 393.964844 86.289062 390.269531 86.289062 L 339.976562 86.289062 C 335.476562 86.289062 331.570312 83.175781 330.6875 78.898438 L 330.644531 78.683594 C 330 75.320312 331.742188 71.460938 334.699219 69.710938 C 337.523438 68.027344 340.941406 68.625 344.300781 71.390625 C 345.558594 72.421875 346.148438 73.621094 346.0625 74.957031 C 345.976562 76.269531 345.253906 77.304688 344.792969 77.59375 C 343.78125 78.222656 343.472656 79.550781 344.101562 80.558594 C 344.734375 81.570312 346.066406 81.875 347.070312 81.25 C 348.878906 80.121094 350.203125 77.707031 350.367188 75.238281 C 350.542969 72.519531 349.363281 69.972656 347.042969 68.0625 C 344.445312 65.929688 341.703125 64.734375 339.03125 64.5 C 338.457031 62.863281 337.472656 58.359375 341.851562 54.128906 C 349.320312 46.914062 355.609375 47.613281 359.507812 49.394531 C 356.570312 54.511719 358.660156 59.21875 360.410156 61.183594 C 360.832031 61.660156 361.417969 61.898438 362.007812 61.898438 C 362.511719 61.898438 363.019531 61.722656 363.429688 61.367188 C 364.320312 60.589844 364.410156 59.234375 363.644531 58.335938 C 363.316406 57.953125 360.550781 54.464844 364.289062 50.078125 C 364.292969 50.070312 364.296875 50.0625 364.304688 50.054688 C 364.320312 50.039062 364.332031 50.015625 364.347656 50 C 364.378906 49.957031 364.410156 49.917969 364.4375 49.875 C 364.441406 49.871094 364.441406 49.871094 364.445312 49.867188 C 364.449219 49.859375 364.457031 49.847656 364.460938 49.835938 C 364.496094 49.785156 364.523438 49.738281 364.550781 49.6875 C 364.558594 49.671875 364.566406 49.65625 364.574219 49.644531 C 364.597656 49.59375 364.621094 49.542969 364.640625 49.492188 C 364.648438 49.472656 364.65625 49.453125 364.664062 49.433594 C 364.679688 49.390625 364.699219 49.34375 364.710938 49.296875 C 364.71875 49.273438 364.726562 49.246094 364.730469 49.21875 C 364.742188 49.179688 364.753906 49.136719 364.761719 49.097656 C 364.765625 49.066406 364.769531 49.035156 364.777344 49.003906 C 364.78125 48.96875 364.785156 48.929688 364.789062 48.894531 C 364.792969 48.859375 364.796875 48.824219 364.796875 48.789062 C 364.796875 48.757812 364.800781 48.722656 364.800781 48.6875 C 364.800781 48.652344 364.800781 48.617188 364.796875 48.582031 C 364.796875 48.546875 364.796875 48.515625 364.792969 48.480469 C 364.789062 48.445312 364.78125 48.410156 364.777344 48.375 C 364.773438 48.34375 364.769531 48.308594 364.761719 48.277344 C 364.757812 48.242188 364.746094 48.207031 364.738281 48.175781 C 364.730469 48.140625 364.722656 48.109375 364.714844 48.074219 C 364.707031 48.042969 364.691406 48.007812 364.679688 47.972656 C 364.667969 47.941406 364.660156 47.910156 364.648438 47.878906 C 364.632812 47.84375 364.617188 47.8125 364.601562 47.777344 C 364.589844 47.75 364.578125 47.71875 364.5625 47.691406 C 364.542969 47.65625 364.523438 47.625 364.503906 47.589844 C 364.488281 47.5625 364.472656 47.539062 364.457031 47.511719 C 364.433594 47.476562 364.40625 47.441406 364.382812 47.40625 C 364.367188 47.386719 364.351562 47.363281 364.332031 47.339844 C 364.304688 47.304688 364.277344 47.273438 364.246094 47.238281 C 364.226562 47.21875 364.210938 47.199219 364.191406 47.179688 C 364.160156 47.148438 364.128906 47.121094 364.097656 47.089844 C 364.078125 47.074219 364.0625 47.054688 364.042969 47.039062 C 364.039062 47.035156 364.035156 47.03125 364.027344 47.027344 C 364.003906 47.007812 363.976562 46.988281 363.949219 46.96875 C 363.914062 46.941406 363.878906 46.914062 363.84375 46.890625 C 363.839844 46.890625 363.839844 46.886719 363.835938 46.882812 C 361.429688 45.292969 356.417969 42.839844 350.042969 44.382812 C 351.292969 42.351562 353.183594 40.183594 355.890625 39.167969 C 361.6875 36.988281 367.222656 37.796875 372.347656 41.574219 C 373.136719 42.15625 374.238281 42.121094 375 41.5 C 375.160156 41.371094 379.023438 38.300781 385.183594 39.324219 C 390.964844 40.289062 392.578125 46.308594 392.640625 46.554688 C 392.867188 47.476562 393.683594 48.144531 394.636719 48.191406 C 394.925781 48.203125 400.71875 48.542969 402.777344 53.019531 C 401.902344 52.953125 401.015625 52.957031 400.132812 53.03125 C 398.132812 53.199219 396.203125 53.726562 394.433594 54.558594 C 393.664062 52.925781 392.554688 51.640625 391.109375 50.730469 C 387.695312 48.585938 383.824219 49.441406 383.398438 49.546875 C 382.722656 49.710938 382.167969 50.191406 381.910156 50.835938 C 380.484375 54.355469 376.714844 53.324219 375.96875 53.082031 C 374.851562 52.710938 373.628906 53.308594 373.246094 54.429688 C 372.859375 55.558594 373.464844 56.78125 374.589844 57.164062 C 377.25 58.066406 382.664062 58.363281 385.347656 53.617188 C 386.246094 53.566406 387.65625 53.640625 388.839844 54.394531 C 389.6875 54.933594 390.332031 55.789062 390.757812 56.933594 C 389.925781 57.648438 389.164062 58.445312 388.492188 59.320312 C 388.230469 59.664062 387.96875 60.023438 387.714844 60.402344 C 387.050781 61.390625 387.3125 62.730469 388.300781 63.390625 C 389.289062 64.054688 390.628906 63.792969 391.292969 62.808594 C 391.496094 62.503906 391.699219 62.21875 391.910156 61.945312 C 393.945312 59.296875 397.074219 57.613281 400.496094 57.324219 C 403.886719 57.042969 407.238281 58.160156 409.667969 60.40625 C 414.800781 65.15625 414.667969 74.019531 411.933594 79.949219 C 408.816406 86.71875 400.367188 86.316406 399.875 86.289062 Z M 369.96875 18.195312 C 303.652344 23.871094 316.914062 85.394531 316.914062 88.5 C 316.914062 90.550781 312.5 100.53125 309.503906 107.058594 C 308.167969 109.972656 309.988281 113.34375 313.15625 113.84375 L 321.269531 115.121094 L 321.269531 129.945312 C 321.269531 136.019531 326.675781 140.675781 332.691406 139.777344 L 356.574219 136.207031 L 356.527344 136.214844 L 356.527344 147.148438 L 403.128906 147.148438 L 403.445312 130.511719 C 439.445312 94.859375 436.289062 12.515625 369.96875 18.195312 " fill-opacity="1" fill-rule="nonzero"></path></g></svg>